<svg xmlns="http://www.w3.org/2000/svg" xmlns:xlink="http://www.w3.org/1999/xlink" contentStyleType="text/css" data-diagram-type="DESCRIPTION" height="634px" preserveAspectRatio="none" style="width:1919px;height:634px;background:#FAFCFE;" version="1.1" viewBox="0 0 1919 634" width="1919px" zoomAndPan="magnify"><?plantuml 1.2026.6?><defs/><g><rect fill="#FAFCFE" height="634" style="stroke:none;stroke-width:1;" width="1919" x="0" y="0"/><g class="title" data-source-line="12"><text fill="#000000" font-family="sans-serif" font-size="22" font-weight="700" lengthAdjust="spacing" textLength="611.976" x="652.512" y="38.5181">Login HUD &#8212; presentation and shutdown authorization</text></g><!--cluster GNOME Shell 46 / Wayland--><g class="cluster" data-qualified-name="GNOME Shell 46 . Wayland" data-source-line="15" id="ent0002"><path d="M1103.5,335.5661 L1289.0333,335.5661 A3.75,3.75 0 0 1 1291.5333,338.0661 L1298.5333,360.634 L1901.5,360.634 A2.5,2.5 0 0 1 1904,363.134 L1904,577.0661 A2.5,2.5 0 0 1 1901.5,579.5661 L1103.5,579.5661 A2.5,2.5 0 0 1 1101,577.0661 L1101,338.0661 A2.5,2.5 0 0 1 1103.5,335.5661" fill="#FFFFFF" style="stroke:#849CAD;stroke-width:1;"/><line style="stroke:#849CAD;stroke-width:1;" x1="1101" x2="1298.5333" y1="360.634" y2="360.634"/><text fill="#000000" font-family="sans-serif" font-size="14" font-weight="700" lengthAdjust="spacing" textLength="184.5333" x="1105" y="352.532">GNOME Shell 46 / Wayland</text></g><!--cluster Private per-user files--><g class="cluster" data-qualified-name="Private per-user files" data-source-line="20" id="ent0006"><path d="M531,311.5661 L677.4455,311.5661 A3.75,3.75 0 0 1 679.9455,314.0661 L686.9455,336.634 L787,336.634 A2.5,2.5 0 0 1 789.5,339.134 L789.5,617.0661 A2.5,2.5 0 0 1 787,619.5661 L531,619.5661 A2.5,2.5 0 0 1 528.5,617.0661 L528.5,314.0661 A2.5,2.5 0 0 1 531,311.5661" fill="#FFFFFF" style="stroke:#849CAD;stroke-width:1;"/><line style="stroke:#849CAD;stroke-width:1;" x1="528.5" x2="686.9455" y1="336.634" y2="336.634"/><text fill="#000000" font-family="sans-serif" font-size="14" font-weight="700" lengthAdjust="spacing" textLength="145.4455" x="532.5" y="328.532">Private per-user files</text></g><!--cluster Separate producers--><g class="cluster" data-qualified-name="Separate producers" data-source-line="25" id="ent0010"><path d="M13.5,62.5661 L151.3355,62.5661 A3.75,3.75 0 0 1 153.8355,65.0661 L160.8355,87.634 L807.5,87.634 A2.5,2.5 0 0 1 810,90.134 L810,285.0661 A2.5,2.5 0 0 1 807.5,287.5661 L13.5,287.5661 A2.5,2.5 0 0 1 11,285.0661 L11,65.0661 A2.5,2.5 0 0 1 13.5,62.5661" fill="#FFFFFF" style="stroke:#849CAD;stroke-width:1;"/><line style="stroke:#849CAD;stroke-width:1;" x1="11" x2="160.8355" y1="87.634" y2="87.634"/><text fill="#000000" font-family="sans-serif" font-size="14" font-weight="700" lengthAdjust="spacing" textLength="136.8355" x="15" y="79.532">Separate producers</text></g><!--entity Native--><g class="entity" data-qualified-name="GNOME Shell 46 . Wayland.Native" data-source-line="16" id="ent0003"><rect fill="#EAF4FA" height="39.0679" rx="2.5" ry="2.5" style="stroke:#000000;stroke-width:1;" width="188.6293" x="1670.5" y="486.0661"/><text fill="#000000" font-family="sans-serif" font-size="14" lengthAdjust="spacing" textLength="168.6293" x="1680.5" y="511.032">Native end-session dialog</text></g><!--entity HUD--><g class="entity" data-qualified-name="GNOME Shell 46 . Wayland.HUD" data-source-line="17" id="ent0004"><rect fill="#EAF4FA" height="77.2038" rx="2.5" ry="2.5" style="stroke:#000000;stroke-width:1;" width="230.5452" x="1117" y="420.0661"/><text fill="#000000" font-family="sans-serif" font-size="14" lengthAdjust="spacing" textLength="139.1315" x="1127" y="445.032">Login HUD extension</text><text fill="#000000" font-family="sans-serif" font-size="14" lengthAdjust="spacing" textLength="169.8754" x="1127" y="464.0999">current-session validation</text><text fill="#000000" font-family="sans-serif" font-size="14" lengthAdjust="spacing" textLength="210.5452" x="1127" y="483.1679">progress / reports / cancellation</text></g><!--entity UI--><g class="entity" data-qualified-name="GNOME Shell 46 . Wayland.UI" data-source-line="18" id="ent0005"><rect fill="#EAF4FA" height="77.2038" rx="2.5" ry="2.5" style="stroke:#000000;stroke-width:1;" width="246.2811" x="1642" y="374.0661"/><text fill="#000000" font-family="sans-serif" font-size="14" lengthAdjust="spacing" textLength="85.7077" x="1652" y="399.032">Shell chrome</text><text fill="#000000" font-family="sans-serif" font-size="14" lengthAdjust="spacing" textLength="199.4852" x="1652" y="418.0999">startup: bounded input region</text><text fill="#000000" font-family="sans-serif" font-size="14" lengthAdjust="spacing" textLength="226.2811" x="1652" y="437.1679">shutdown: conditional modal grab</text></g><!--entity Status--><g class="entity" data-qualified-name="Private per-user files.Status" data-source-line="21" id="ent0007"><rect fill="#FFFFFF" height="61.1358" rx="2.5" ry="2.5" style="stroke:#000000;stroke-width:1;" width="205.4053" x="556.5" y="446.0661"/><polygon fill="#FFFFFF" points="744.9053,451.0661,744.9053,465.0661,756.9053,465.0661,756.9053,457.0661,750.9053,451.0661,744.9053,451.0661" style="stroke:#000000;stroke-width:1;stroke-linejoin:miter;stroke-miterlimit:10;"/><line style="stroke:#000000;stroke-width:1;" x1="750.9053" x2="750.9053" y1="451.0661" y2="457.0661"/><line style="stroke:#000000;stroke-width:1;" x1="756.9053" x2="750.9053" y1="457.0661" y2="457.0661"/><text fill="#000000" font-family="sans-serif" font-size="14" lengthAdjust="spacing" textLength="139.1035" x="566.5" y="474.032">login-hud-status.json</text><text fill="#000000" font-family="sans-serif" font-size="14" lengthAdjust="spacing" textLength="175.4053" x="566.5" y="493.0999">operation context + stages</text></g><!--entity Markers--><g class="entity" data-qualified-name="Private per-user files.Markers" data-source-line="22" id="ent0008"><rect fill="#FFFFFF" height="61.1358" rx="2.5" ry="2.5" style="stroke:#000000;stroke-width:1;" width="228.5472" x="544.5" y="350.0661"/><polygon fill="#FFFFFF" points="756.0472,355.0661,756.0472,369.0661,768.0472,369.0661,768.0472,361.0661,762.0472,355.0661,756.0472,355.0661" style="stroke:#000000;stroke-width:1;stroke-linejoin:miter;stroke-miterlimit:10;"/><line style="stroke:#000000;stroke-width:1;" x1="762.0472" x2="762.0472" y1="355.0661" y2="361.0661"/><line style="stroke:#000000;stroke-width:1;" x1="768.0472" x2="762.0472" y1="361.0661" y2="361.0661"/><text fill="#000000" font-family="sans-serif" font-size="14" lengthAdjust="spacing" textLength="198.5472" x="554.5" y="378.032">request &#8594; rendered &#8594; commit</text><text fill="#000000" font-family="sans-serif" font-size="14" lengthAdjust="spacing" textLength="173.2073" x="554.5" y="397.0999">cancel / prepared markers</text></g><!--entity Reports--><g class="entity" data-qualified-name="Private per-user files.Reports" data-source-line="23" id="ent0009"><rect fill="#FFFFFF" height="61.1358" rx="2.5" ry="2.5" style="stroke:#000000;stroke-width:1;" width="177.6714" x="570" y="542.0661"/><polygon fill="#FFFFFF" points="730.6714,547.0661,730.6714,561.0661,742.6714,561.0661,742.6714,553.0661,736.6714,547.0661,730.6714,547.0661" style="stroke:#000000;stroke-width:1;stroke-linejoin:miter;stroke-miterlimit:10;"/><line style="stroke:#000000;stroke-width:1;" x1="736.6714" x2="736.6714" y1="547.0661" y2="553.0661"/><line style="stroke:#000000;stroke-width:1;" x1="742.6714" x2="736.6714" y1="553.0661" y2="553.0661"/><text fill="#000000" font-family="sans-serif" font-size="14" lengthAdjust="spacing" textLength="68.0957" x="580" y="570.032">alerts.json</text><text fill="#000000" font-family="sans-serif" font-size="14" lengthAdjust="spacing" textLength="147.6714" x="580" y="589.0999">gc-profiled/status.json</text></g><!--entity Coordinator--><g class="entity" data-qualified-name="Separate producers.Coordinator" data-source-line="26" id="ent0011"><rect fill="#EAF4FA" height="77.2038" rx="2.5" ry="2.5" style="stroke:#000000;stroke-width:1;" width="237.9791" x="27" y="101.0661"/><text fill="#000000" font-family="sans-serif" font-size="14" lengthAdjust="spacing" textLength="153.6494" x="37" y="126.032">Workspace coordinator</text><text fill="#000000" font-family="sans-serif" font-size="14" lengthAdjust="spacing" textLength="137.4235" x="37" y="145.0999">operation ownership</text><text fill="#000000" font-family="sans-serif" font-size="14" lengthAdjust="spacing" textLength="217.9791" x="37" y="164.1679">checkpoint verification / recovery</text></g><!--entity Adapters--><g class="entity" data-qualified-name="Separate producers.Adapters" data-source-line="27" id="ent0012"><rect fill="#EAF4FA" height="39.0679" rx="2.5" ry="2.5" style="stroke:#000000;stroke-width:1;" width="270.0391" x="524" y="120.0661"/><text fill="#000000" font-family="sans-serif" font-size="14" lengthAdjust="spacing" textLength="250.0391" x="534" y="145.032">Application restore / capture adapters</text></g><!--entity Collectors--><g class="entity" data-qualified-name="Separate producers.Collectors" data-source-line="28" id="ent0013"><rect fill="#EAF4FA" height="58.1358" rx="2.5" ry="2.5" style="stroke:#000000;stroke-width:1;" width="178.1714" x="57" y="213.5661"/><text fill="#000000" font-family="sans-serif" font-size="14" lengthAdjust="spacing" textLength="158.1714" x="67" y="238.532">Owned-system collector</text><text fill="#000000" font-family="sans-serif" font-size="14" lengthAdjust="spacing" textLength="148.9174" x="67" y="257.5999">and cleanup scheduler</text></g><!--entity User--><g class="entity" data-qualified-name="User" data-source-line="14" id="ent0001"><ellipse cx="1232.3089" cy="131.5661" fill="#FFFFFF" rx="8" ry="8" style="stroke:#000000;stroke-width:1;"/><path d="M1232.3089,139.5661 L1232.3089,166.5661 M1219.3089,147.5661 L1245.3089,147.5661 M1232.3089,166.5661 L1219.3089,181.5661 M1232.3089,166.5661 L1245.3089,181.5661" fill="none" style="stroke:#000000;stroke-width:1;"/><text fill="#000000" font-family="sans-serif" font-size="14" lengthAdjust="spacing" textLength="30.6179" x="1217" y="198.532">User</text></g><g class="entity" data-qualified-name="GMN28" data-source-line="47" id="ent0029"><path d="M1071,238.0661 L1071,318.8902 A0,0 0 0 0 1071,318.8902 L1228.5,318.8902 L1232.5,419.8961 L1236.5,318.8902 L1394.0943,318.8902 A0,0 0 0 0 1394.0943,318.8902 L1394.0943,248.0661 L1384.0943,238.0661 L1071,238.0661 A0,0 0 0 0 1071,238.0661" fill="#FFF6D7" style="stroke:#000000;stroke-width:1;"/><path d="M1384.0943,238.0661 L1384.0943,248.0661 L1394.0943,248.0661 L1384.0943,238.0661" fill="#FFF6D7" style="stroke:#000000;stroke-width:1;"/><text fill="#000000" font-family="sans-serif" font-size="13" lengthAdjust="spacing" textLength="302.0943" x="1077" y="256.9631">No application restoration or cleanup policy here.</text><text fill="#000000" font-family="sans-serif" font-size="13" lengthAdjust="spacing" textLength="226.7202" x="1077" y="274.6691">Startup never acquires a modal grab.</text><text fill="#000000" font-family="sans-serif" font-size="13" lengthAdjust="spacing" textLength="281.3593" x="1077" y="292.3751">Missing, stale or mismatched evidence cannot</text><text fill="#000000" font-family="sans-serif" font-size="13" lengthAdjust="spacing" textLength="188.2662" x="1080.38" y="310.0811">authorize a shutdown handoff.</text></g><!--link User to Native--><g class="link" data-entity-1="ent0001" data-entity-2="ent0003" data-link-type="dependency" data-source-line="31" id="lnk14"><path d="M1248.13,164.2761 C1278.67,168.5461 1349.99,182.2361 1394,220.5661 C1415.59,239.3661 1404.38,256.7161 1424,277.5661 C1490.97,348.7261 1549.15,316.7361 1612,391.5661 C1635.62,419.6861 1615.05,443.6161 1642,468.5661 C1650.2,476.1561 1655.3872,480.0857 1665.6972,484.8857" fill="none" id="User-to-Native" style="stroke:#365369;stroke-width:1;"/><polygon fill="#365369" points="1670.23,486.9961,1663.7592,479.5712,1665.6972,484.8857,1660.3827,486.8237,1670.23,486.9961" style="stroke:#365369;stroke-width:1;stroke-linejoin:miter;stroke-miterlimit:10;"/><text fill="#000000" font-family="sans-serif" font-size="13" lengthAdjust="spacing" textLength="173.5111" x="1431.5" y="273.4631">confirms Power Off / Restart</text></g><!--link Native to HUD--><g class="link" data-entity-1="ent0003" data-entity-2="ent0004" data-link-type="dependency" data-source-line="32" id="lnk15"><path d="M1673.48,525.1061 C1604.59,536.9461 1507.68,547.0461 1424,531.5661 C1386.91,524.7061 1352.3278,512.8334 1319.1878,499.0734" fill="none" id="Native-to-HUD" style="stroke:#365369;stroke-width:1;"/><polygon fill="#365369" points="1314.57,497.1561,1321.3481,504.3015,1319.1878,499.0734,1324.4159,496.9131,1314.57,497.1561" style="stroke:#365369;stroke-width:1;stroke-linejoin:miter;stroke-miterlimit:10;"/><text fill="#000000" font-family="sans-serif" font-size="13" lengthAdjust="spacing" textLength="186.2902" x="1425" y="527.4631">final confirmation interception</text></g><!--link HUD to Native--><g class="link" data-entity-1="ent0004" data-entity-2="ent0003" data-link-type="dependency" data-source-line="41" id="lnk24"><path d="M1348.07,469.5661 C1373.09,471.9161 1399.43,474.3561 1424,476.5661 C1507.2,484.0461 1596.9074,491.6695 1665.1974,497.3795" fill="none" id="HUD-to-Native" style="stroke:#365369;stroke-width:1;"/><polygon fill="#365369" points="1670.18,497.7961,1661.5446,493.0601,1665.1974,497.3795,1660.878,501.0323,1670.18,497.7961" style="stroke:#365369;stroke-width:1;stroke-linejoin:miter;stroke-miterlimit:10;"/><text fill="#000000" font-family="sans-serif" font-size="13" lengthAdjust="spacing" textLength="117.5591" x="1459.5" y="454.4631">saved confirmation</text><text fill="#000000" font-family="sans-serif" font-size="13" lengthAdjust="spacing" textLength="95.3681" x="1470.5955" y="472.1691">only after proof</text></g><!--link HUD to UI--><g class="link" data-entity-1="ent0004" data-entity-2="ent0005" data-link-type="dependency" data-source-line="33" id="lnk16"><path d="M1348.15,440.7061 C1373.11,437.2761 1399.4,433.9961 1424,431.5661 C1496.07,424.4561 1572.0251,420.0318 1636.8551,417.1018" fill="none" id="HUD-to-UI" style="stroke:#365369;stroke-width:1;"/><polygon fill="#365369" points="1641.85,416.8761,1632.6786,413.2865,1636.8551,417.1018,1633.0398,421.2783,1641.85,416.8761" style="stroke:#365369;stroke-width:1;stroke-linejoin:miter;stroke-miterlimit:10;"/><text fill="#000000" font-family="sans-serif" font-size="13" lengthAdjust="spacing" textLength="134.3421" x="1451" y="414.4631">render validated state</text></g><!--link User to UI--><g class="link" data-entity-1="ent0001" data-entity-2="ent0005" data-link-type="dependency" data-source-line="34" id="lnk17"><path d="M1248.35,162.9761 C1301.39,165.0661 1485.16,177.4661 1612,250.5661 C1665.3,281.2861 1708.2486,332.5555 1735.2786,369.9055" fill="none" id="User-to-UI" style="stroke:#365369;stroke-width:1;"/><polygon fill="#365369" points="1738.21,373.9561,1736.174,364.32,1735.2786,369.9055,1729.6931,369.0102,1738.21,373.9561" style="stroke:#365369;stroke-width:1;stroke-linejoin:miter;stroke-miterlimit:10;"/><text fill="#000000" font-family="sans-serif" font-size="13" lengthAdjust="spacing" textLength="147.4201" x="1444.5" y="182.4631">expand / review / cancel</text></g><!--link Coordinator to Status--><g class="link" data-entity-1="ent0011" data-entity-2="ent0007" data-link-type="dependency" data-source-line="35" id="lnk18"><path d="M248.28,178.1461 C254.57,183.2761 260.26,189.0561 265,195.5661 C325.39,278.5661 222.85,351.5461 295,424.5661 C330.57,460.5661 456.9933,471.7247 551.4733,475.1547" fill="none" id="Coordinator-to-Status" style="stroke:#365369;stroke-width:1;"/><polygon fill="#365369" points="556.47,475.3361,547.621,471.0122,551.4733,475.1547,547.3308,479.0069,556.47,475.3361" style="stroke:#365369;stroke-width:1;stroke-linejoin:miter;stroke-miterlimit:10;"/><text fill="#000000" font-family="sans-serif" font-size="13" lengthAdjust="spacing" textLength="122.1091" x="333.5" y="420.4631">atomic replacement</text></g><!--link Status to HUD--><g class="link" data-entity-1="ent0007" data-entity-2="ent0004" data-link-type="dependency" data-source-line="36" id="lnk19"><path d="M761.75,486.5061 C782.96,488.1961 805.19,489.6861 826,490.5661 C921.47,494.5861 945.78,498.5061 1041,490.5661 C1065.65,488.5061 1086.9627,485.7753 1111.8627,481.7953" fill="none" id="Status-to-HUD" style="stroke:#365369;stroke-width:1;"/><polygon fill="#365369" points="1116.8,481.0061,1107.2815,478.4767,1111.8627,481.7953,1108.5442,486.3765,1116.8,481.0061" style="stroke:#365369;stroke-width:1;stroke-linejoin:miter;stroke-miterlimit:10;"/><text fill="#000000" font-family="sans-serif" font-size="13" lengthAdjust="spacing" textLength="181.5972" x="843" y="486.4631">directory monitor + validation</text></g><!--link HUD to Markers--><g class="link" data-entity-1="ent0004" data-entity-2="ent0008" data-link-type="dependency" data-source-line="37" id="lnk20"><path d="M1116.65,459.7961 C1034.77,458.5361 922.55,452.4061 826,431.5661 C822.29,430.7661 821.6,429.7861 818,428.5661 C800.62,422.6761 786.8359,418.2062 768.7659,412.6062" fill="none" id="HUD-to-Markers" style="stroke:#365369;stroke-width:1;"/><polygon fill="#365369" points="763.99,411.1261,771.4026,417.611,768.7659,412.6062,773.7707,409.9695,763.99,411.1261" style="stroke:#365369;stroke-width:1;stroke-linejoin:miter;stroke-miterlimit:10;"/><text fill="#000000" font-family="sans-serif" font-size="13" lengthAdjust="spacing" textLength="213.4212" x="827" y="427.4631">request / painted / commit / cancel</text></g><!--link Markers to HUD--><g class="link" data-entity-1="ent0008" data-entity-2="ent0004" data-link-type="dependency" data-source-line="40" id="lnk23"><path d="M773.59,383.4661 C849.68,386.7461 951.86,393.7261 1041,408.5661 C1065.79,412.6961 1087.2025,417.3506 1112.0425,423.6306" fill="none" id="Markers-to-HUD" style="stroke:#365369;stroke-width:1;"/><polygon fill="#365369" points="1116.89,424.8561,1109.145,418.7721,1112.0425,423.6306,1107.1841,426.5281,1116.89,424.8561" style="stroke:#365369;stroke-width:1;stroke-linejoin:miter;stroke-miterlimit:10;"/><text fill="#000000" font-family="sans-serif" font-size="13" lengthAdjust="spacing" textLength="154.8041" x="856.5" y="383.4631">matching prepared proof</text></g><!--link Markers to Coordinator--><g class="link" data-entity-1="ent0008" data-entity-2="ent0011" data-link-type="dependency" data-source-line="38" id="lnk21"><path d="M593.05,349.9361 C500.32,306.1961 334.5622,228.029 233.3422,180.289" fill="none" id="Markers-to-Coordinator" style="stroke:#365369;stroke-width:1;"/><polygon fill="#365369" points="228.82,178.1561,235.2537,185.6131,233.3422,180.289,238.6664,178.3775,228.82,178.1561" style="stroke:#365369;stroke-width:1;stroke-linejoin:miter;stroke-miterlimit:10;"/><text fill="#000000" font-family="sans-serif" font-size="13" lengthAdjust="spacing" textLength="197.3272" x="296" y="207.4631">exact operation-bound evidence</text></g><!--link Coordinator to Markers--><g class="link" data-entity-1="ent0011" data-entity-2="ent0008" data-link-type="dependency" data-source-line="39" id="lnk22"><path d="M247.11,178.2061 C253.75,183.3261 259.84,189.0961 265,195.5661 C303.32,243.6161 249.8,288.9161 295,330.5661 C361.08,391.4561 459.7571,400.6418 539.4171,396.4018" fill="none" id="Coordinator-to-Markers" style="stroke:#365369;stroke-width:1;"/><polygon fill="#365369" points="544.41,396.1361,535.2101,392.6201,539.4171,396.4018,535.6353,400.6088,544.41,396.1361" style="stroke:#365369;stroke-width:1;stroke-linejoin:miter;stroke-miterlimit:10;"/><text fill="#000000" font-family="sans-serif" font-size="13" lengthAdjust="spacing" textLength="159.4061" x="315" y="326.4631">prepared / recovery result</text></g><!--link Coordinator to Adapters--><g class="link" data-entity-1="ent0011" data-entity-2="ent0012" data-link-type="dependency" data-source-line="42" id="lnk25"><path d="M265.2,139.5661 C342.43,139.5661 438.48,139.5661 518.74,139.5661" fill="none" id="Coordinator-to-Adapters" style="stroke:#365369;stroke-width:1;"/><polygon fill="#365369" points="523.74,139.5661,514.74,135.5661,518.74,139.5661,514.74,143.5661,523.74,139.5661" style="stroke:#365369;stroke-width:1;stroke-linejoin:miter;stroke-miterlimit:10;"/><text fill="#000000" font-family="sans-serif" font-size="13" lengthAdjust="spacing" textLength="167.8691" x="311" y="135.4631">restore / verify / checkpoint</text></g><!--link Collectors to Reports--><g class="link" data-entity-1="ent0013" data-entity-2="ent0009" data-link-type="dependency" data-source-line="43" id="lnk26"><path d="M154.58,271.7061 C170.52,326.7861 212.99,445.9061 295,504.5661 C375.44,562.1061 485.7305,574.9126 564.6705,576.0726" fill="none" id="Collectors-to-Reports" style="stroke:#365369;stroke-width:1;"/><polygon fill="#365369" points="569.67,576.1461,560.7297,572.0143,564.6705,576.0726,560.6122,580.0134,569.67,576.1461" style="stroke:#365369;stroke-width:1;stroke-linejoin:miter;stroke-miterlimit:10;"/><text fill="#000000" font-family="sans-serif" font-size="13" lengthAdjust="spacing" textLength="144.0271" x="322.5" y="500.4631">bounded status reports</text></g><!--link Reports to HUD--><g class="link" data-entity-1="ent0009" data-entity-2="ent0004" data-link-type="dependency" data-source-line="44" id="lnk27"><path d="M748.25,565.8661 C826.03,558.8061 942.04,545.4561 1041,522.5661 C1069.89,515.8861 1095.8603,508.1783 1123.9903,498.7283" fill="none" id="Reports-to-HUD" style="stroke:#365369;stroke-width:1;"/><polygon fill="#365369" points="1128.73,497.1361,1118.9247,496.2104,1123.9903,498.7283,1121.4724,503.7939,1128.73,497.1361" style="stroke:#365369;stroke-width:1;stroke-linejoin:miter;stroke-miterlimit:10;"/><text fill="#000000" font-family="sans-serif" font-size="13" lengthAdjust="spacing" textLength="103.1551" x="882" y="518.4631">startup tabs only</text></g></g></svg>